<mxfile host="app.diagrams.net" modified="2023-03-26T16:47:28.905Z" agent="Mozilla/5.0 (Windows NT 10.0; Win64; x64) AppleWebKit/537.36 (KHTML, like Gecko) Chrome/111.0.0.0 Safari/537.36" etag="k6Pnphk4gax7z19qNRag" version="21.1.0" type="google">
  <diagram name="Page-1" id="w_ys0i3Y8fxBrrLxKNy2">
    <mxGraphModel grid="1" page="1" gridSize="10" guides="1" tooltips="1" connect="1" arrows="1" fold="1" pageScale="1" pageWidth="850" pageHeight="1100" math="0" shadow="0">
      <root>
        <mxCell id="0" />
        <mxCell id="1" parent="0" />
        <mxCell id="rnFfyLZnU6G94Pxc_LtT-4" value="" style="group;strokeColor=none;" connectable="0" vertex="1" parent="1">
          <mxGeometry x="-200" y="218.07" width="567" height="381.99999999999994" as="geometry" />
        </mxCell>
        <mxCell id="rnFfyLZnU6G94Pxc_LtT-1" value="" style="shape=image;verticalLabelPosition=bottom;labelBackgroundColor=default;verticalAlign=top;aspect=fixed;imageAspect=0;image=data:image/png,iVBORw0KGgoAAAANSUhEUgAAAjcAAAF+CAYAAAB+lzuXAAAAAXNSR0IArs4c6QAAAARnQU1BAACxjwv8YQUAAAAJcEhZcwAADsMAAA7DAcdvqGQAADK1SURBVHhe7d1tcFzVnefxo8kGYgaHkSCYJ8MgAWZjwg7Ig6kxKbtqpexswFMVKHnzYjNbA4lclbzhDSW/jN/Jzr6Ja1Mp+0VShWdr11LIi+BJdkaaIa5BwaHk8BCHAQcJgkMcQ5DCEMfmwe69v6P7l69u327d209Sn/5+MmfU9/nc20rOz+ecbnWVIg4AACAQfxL/BAAACALhBgAABIVwAwAAgkK4AQAAQSHcAACAoBBuAABAUAg3AAAgKA35nptjx465+fl5/7q7u9v19va62dlZ19/f79dlmZyc9D+1f7X9stixOk7HN8pqrBMAAChI4aZWY2NjpSjIKBwtKVHj7n9m2b9//+J2K1EgKE1PT8d7lPzr5HYVrRsZGVlyrF7bcaOjo0v2V7FtOn9y/dDQkF9vmlUnAADQejWHm5mZGd+QDwwM+JCjZRW9tsY+zQKIwsXExERpbm5uMVioaNlou8rw8LA/xgKKlnUNhQot63jRsdpf9VHRa2MhRPtrveppmlknAADQejWHGzXyFhbSrJFPUqDQunSvidi5FDTS7Fwq6dCQ1UNiwSRN101fu1V1AgAArVPzhOL+eG7Jzp073Z49e/ycE5t3EzX+Lmrk/Wtz4MAB/zMKC/5n0sDAgJ+nY/NWsmif4eHheGmB6pAWBRVfj/Hx8XiNW1zWOZJaVScAANA6NYcbBZuJiQnfmO/atcsNDg66np4e19fX55e1PUmTjkXbu7q6yoomIFs4yqLQkoeuq32TocSCTvocraoTAABonYb9VXCFCYUBFYUJhQILP7Jjxw6/Xr06lainJN0ToqCkniGdK93zUol6ZNSjNDc358OOri1jY2P+p2llnQAAQIv4wakaaG6JDtfclDRNwtWnqIYSc1ls4m7W/mITktNsfkul47Lo+jpG82GSr9NaWScAANAaNQ9L2XCNejDS1FuikhzSUe+H1qlHRb07aRrW0rZGSA5NqWfGltNaWScAANAaH/t6JH5diMLAwYMH/c+pqSl37tw5H2YUJnbv3u3XaaLuxo0b/f5r1qzxQzgaMlKx4KMAomEezX/R8JCGsbRt37597vDhw369rqHjdU6bS6Phomp0DgUv1eu+++7LDDetrhMAAGiBuAenMA3J6HAN7WgISq+tRGHAf+9LFg3zaLgqub+OT+5vQ16VSnK4qxINR3V3L3zfznLDR62qEwAAaL66JhSrN0PDOvZavRk2gTgP9YAU2b8VVmOdAABAfg37tBQAAMBqwF8FBwAAQSHcAACAoBBuAABAUAg3AAAgKIQbAAAQFMINAAAISs3h5ktf+pL7xje+ES8BAACsDjV/z81VV13lbr31VvfMM8/EawAAAFYew1IAACAohBsAABAUwg0AAAgK4QYAAASFcAMAAIJCuAEAAEEh3AAAgKAQbgAAQFAINwAAICiEGwAAEBTCDQAACArhBgAABKUpfzjzlTdOuxMnT8dL5a684nL3V3f0xksAAACN05SeGwWbI8+/6l6YPVVWnvnF6+5fnvtlvCcAAEBjNW1Y6pOXX+b6N24oK+uu7HYXLtTUWQQAALCspoUbDXZ9eP5CWTkfbahtIAwAAGB5DZ9z8867Z9zhZ37uTvz6d653/fXx2otOvf07d/bc++5vP/eX8Zr81q/rdpddekm8BAAAUK7h4ebJqRfd5PTL8VJjffULW92GG9fFSwAAAOWaEm6enznlNt95e7ymMX764stux7a/INwAAICqmjLnRnnp/IXGlhozGAAA6DBNCjfOfXT+QkML2QYAAOTRnHAT/eejC1EoaWDROYs6duyYm5yc9EWv5+fn/c8i7HgdW8ns7OzifsvtCwAAmqtpPTfnz5caWor03IyPj7u+vj63adMmNzg46Ite27okhZ2urq4lRet27drlenp6Fo/XselgpFBj22w/W1YdAABA6zWp58a5jy6o96ZxJW+2UeDYuXOn6+3tdWNjY25mZsYXvc7S39/vJiYmfBkeHvbrdPyePXvc0NCQP25kZKSs10fXUVDSuv3797vp6Wk/LyhrXwAA0DpN+bTUs6+86W6/pbF/O+rlV2fdfx+4e9lPS2lYSL0nCisDAwPx2gXqjVFoqXTLtl0UWCzsiMKKgpDZsWOH751RqEmuV7A5cOCAD0YKWAAAoLWa9mmprEnB9ZS8GUxBo7u7e7H3JTkHRr0qCiPLUShKBhtJBxgFG+2TXC+6tq5DsAEAYGXUFW6OHj1aNl9loeej5M5fuNDQsjDYtTyFC/XaKHSoJ0a9OJo7o3kwWtb25ajXpRobckoHGwAAsPJqDje33HKL++IXv7g4X8WK1qmTJeu7auopRQbPFDo0V0a9PaqThpgUWNSLY/NkqqHXBQCA9lVzuFm7dq276aab/BBOsmidckjWx7nrKXmzjYKLepAUZMSGmEZHR/2QlHpubF5NrazHplJI0rCVJhwDAIDWa9qcm6zel3pK3jk3Nr8mK8Ao2KjYPrXSORSYNHFYJU2TjTUcBgAAWq9J4Wblv6HYPjWl8KHXCjtaVm9LcrKwgo62aT6O9cRosrCWVawHKE09QerB0cRlFR2jomCjY5abtwMAAJqj5o+CKyiocVcjn6SPgj/9i1+5T11zXbymMd7+7W/cw399T+6PgqteCjbJ4SHVV59kSgYPBZr0F/slad9K35FjwUjXsd4gzddReNJ1AABA6zUl3Pzr8V+5K6++Nl7TGO+8dco98l+XDzeioGGfitJrBRybJ9MsuoYNewEAgJXTtGGprI9z11OKRLBkwNDrZgcbUY8NwQYAgJXXnHDjv+emsSX/H2AAAACdrCnh5vxHH7n33p1vaNE5AQAAltPwcHPlFZe7P/nYf3DnP/ygoUXnvOwTl8RXAQAAyNbwCcUAAAArqSnDUgAAACuFcAMAAILSNuFGfy/q3nvvjZcAAACy0XMDAACCQrgBAABBIdwAAICgEG4AAEBQCDcAACAohBsAABAUwg0AAAgK4QYAAASFcAMAAIJCuAEAAEEh3AAAgKAQbgAAQFAINwAAICiEGwAAEBTCDQAACEoQ4eadd8+4V944XbFoOwAA6AxdpUj8upDBwUHX39/vRkdH4zXN1dXV5TZv3uyOHj0ar7noyakX3eT0y/FSuTWXXuK+9uBWt/7q7ngNAAAIVTDDUrfecLXb+9WHysq2uza4s+9/4L71/SPu5Fvz8d4AACBUHTHnRsHnzr7rCTgAAHSAjplQ/NC2uwk4AAB0gKDCjaYPpUu0dnHbg1vvigPOjwk4AAAEqmN6bsxCwLmhqQFndnbWTU5O+nLs2LF4LQAAaIWOCzfS7IBz4MAB/2kylU2bNsVrAQBAKwQTbmwAKm/5QhRwPtOkgKOPx2sYbGRkJF7TGOPj4/4j8eoZalch3AMAYHXryJ4box6cZgWcZrAhrnYOBiHcAwBgdevocCONDDjz8/O559lon2bPy6nlGuljdE95ji16nVYo8n4AAAJSqtHAwEBpZGQkXmo+VXXz5s3x0lI/ePqF0r7vPVX64/sflpUnjjxXcVuy/P0/PVsa+fb3S2+cnovPmt/c3FxpeHh4yciXns/Q0JB/naZtyX1Vuru7S6Ojo/EeF+3fv79s33TRsWlFriFjY2Ol3t7ezGP0sxLVz/ax0t/fX5qeno73qP0eirBnraL70O9m8vxap3s0ep3crmJ1Vv2T63VuAED7CObPL7z+2zn35e33xWsu+tHR4+7nM2+6z/RdH6+p7NmXXvM/v/bgttx/qkG9A3oW6h3QHJsoVPh1e/bsWewxSD9i3YtEjamLGl2/nyYhaz5K1Oi6qDH12yXZc6Lt2k/PXM/eRMFgybIUuYaGiDTxWeeIQtriuXTMzp07fR2yfk10j7t27fLnsuN0fq2TmZkZX7da76EI3YOKrm3Xyno/7N6tTqqLfkYBzO8rWlY9dczExIR/fioAgPYQVLh5JCPcKLAo3OT15tvzbstn+tz2LXfGa6pT468GUo2gNY6ixrOvry8zGKjhlGTAEO2vRl6BJIsabmtwk9fKUuQaGrrR+5l1Xrtm+h4UJHQunV+BIcnOp9+N9KTqIvdQC11X188KifbJNYUuY3XVumSA2bFjh/+ZvjcAQBtQuKlF1DCtumGpM+c+rLvoPDpfXlFQ8M8iiw1VVRM18n7YRs8yalyr7q99tF3HFLHcNTSspvvQtiiQ+P21zrbZcE2S1SUKBfGapXSurOdS6z3kpWtWeoY2PJa+tuqqehnds/bT/gCA9hPOhOKoOYrup+7iZ1nkpOEL9QhUGk5RD0kW9Xqox0e9Ueo10Gv1Zmh9oxS5huoZNfj+PtSzov17enp8z4yWs+5D9y7aR9dIF11Hz2Y1iUKM/6nemiQNqan3zajXS/ec7vUCALSHtgo3r7zyim940+XQoUPxHq1VKbxUo1Cg4RE1oCMjIz5UWLBq1DBNLddQsNEQjPbR/pqDosZdQUDnsjBj7N51/kpFoWE1Sr9vqqeCmA3l6Z5177W8vwCAlddW4eaqq67yjXC6XLPumniP1lJPgBrAdMNv0j0Eoh4CNaSa86I5KY0INAp4yZ6HotdQ/dXbYvXV/mrwdazOoXtUr0+SnrtoX+2XLjq+yL2l76FeWb1GyftL0v2pvgo3FnKK1B0AsLq0VbjZsGFDZkO6ddvWeI/WU6OoRtP+1W+0nBV6rNHN6hXIapCTbFglSdfQ9ZPDTUWvYevSAUZ0DpX0cbpvrddwV9ZQl8KKtqXlvYckXVvn0xBYpSCZlr4XHafwpNBiwSxJPTV6z3Sc7oshKQBoY6UaRY3EkkmYzaaq3n///fHSUpoA/M3xp0rvnf2g7qLzFJlQrMmnUWPp66fnocmq+qnlqJFcXG+TU7Vd6zSJVeu0HAW0xYmwtr/W2aReo8m72q7rjY2N+ePt2smJvUWvYfuraJ+sY3S9NE001j2q2L3rWDtGr9Py3kNSsn66TjXJe4wCmD9Wx1g9syZHGz0v7aPjAADti3CTKkXDjSggqEG0RtUae4WD5DqjRl0NqW1TsVBhDb1KVkOsfXQu20fnUQOeVuQaFh5U3/QxFkIqUSAZSnyBnorOUe2YvPdgLEDqmGrhRCzc6F6S11AdK4UnY+9XtboDAFa/tvqemyjcuMOHD8drLtL33Lx2as49/MCWeE3tvnN4yt18bU/u77lJ0/CHnkseGm5RiRr3eE1+GsKJGm9fqsl7De1j59JrnT/vfZgi9y5576EI/V5qiMt+rYvUSUNSKlGYitcAANpRx/9tqUYr0rirUa8l2IiOyxMK8l4jeS69LhpspOgxee+hHkXqpDk3zLUBgPZHuEHH0gRjm3isHh4Vwg0AtD/CDYKgIS4NR2lITap9+sro01z6kkKFGr0eGBjgI+AAEICAws3FbxmupyzMP0W7UTjRfBsFFdFrlWpGRhb+7pX9zakx/o4UAASBnhsEQcFkYmKirFSjyfC233T8ZYUAgPYXzKelfnbipLuj97p4Te2Oz/7G3X3b+po/LQUAAFZWED03V15xuetee5l78+3f1110Hp0PAAC0pyB6bgAAAAxzbgAAQFAINwAAICiEGwAAEBTCDQAACArhBgAABIVwAwAAgkK4AQAAQSHcAACAoBBuAABAUAg3AAAgKIQbAAAQFMINAAAICuEGAAAEhXADAACCQrgBAABBIdwAAICgEG4AAEBQCDcAACAohBsAABAUwg0AAAgK4QYAAASFcAMAAIISRLh5590z7pU3TlcsJ9+aj/cEAACh6ypF4teFDA4Ouv7+fjc6Ohqvaa6uri53//33u8OHD8drLnpy6kU3Of1yvJTtv/3nTe6v7uiNlwAAQKiCGZa69Yar3d6vPlRWtt21wW8/9M/T7ifHZ/1rAAAQro6Yc6Pgs/nTNxNwAADoAB0zofihbXcTcAAA6ABBhRtNH0qXaO3itge33kXAAQAgcB3Tc2NCCDizs7Pu2LFj8RIAAEjquHAj7R5wNm3a5AsBBwCAcsGEGxuAylu+EAWce9o04PT29i4WAACwVEf23Bj14LRjwJmennYzMzOuu7s7XgMAAExHhxtpVMCZn593k5OT/qfRsubHZNGQkrartGJ4ya7VLHb/DJUBAFZax4cbqTXg6FuTVTT/pa+vz39rs36Oj4+7np4ev5w1N8bW66e91v579uyJ9yin7XY9K1lBYseOHYvbVZddu3Yt1kVF6+oNINWuYc9Cz8Dote1vxeqg/ZPrdW4AAOrREeFm7t/PuB8dPV61rLn0474o4Dz/y5PxkdVNTEz4P0GhhnpoaMgva6hIDfTAwMDi8oEDB+IjFlgPioaX5ubm/H7aXyEhGQqStI8V+5MXyV4io23aR/VSr5EC0/DwsF83Njbmj9F16pF1jZGRkcVr2DOwe7FnoWekeUJ2rOzfv98fK1rfqj/nAQAIVzB/W+r13865Rx64L15z0bMvveZ+PvtmvLS8N9+ed1s+0+e2b7kzXlOdnoMaeM2BsWWFHZsToyChZTXcxhp9NfZJ6vHQMQo91Sgc6To6p4JDFm3Xfnp/LDyIhY4a3/Yl7BoKNMl7UYBSj4zYcxGrt9YlJ0Nbb43OAwBAvYLvudFwk0JP3nL9p4pP0k0HDIU+hZRKFAQsDKjBV8+O9abUO2SUlgw20oxPWKVDmu5d11Xo0/0ZPSddP9mTpSCksFUppAEAUFQ44aYU/V/8rcT1FP858YKqBZksavR37tzpe6PUk6HXGtrR+lBYiEqGG9EQWTLcKNjo+aUDEgAAtWqrcPPss8/6MJAuhw4divdY/dQzoyEbNeo2T8WCVYi9F+ngp3BjvTWi8KNgUzQgAgBQSVuFm+uvv94P+aTLNeuuifdY/dRrocZd82o0HyaEQKP7SbMem/T9KcQo4CjcMCQFAGiGtgo399xzjw8E6bJ129Z4j9XPgkBWT0VWSGg11UG9YUU+Mp7+CLuOU4hTaFH4TFNPjUKNjmNICgDQaB/7eiR+XcjBgwfddddd17J/de/evds3lNu3b4/XXHTi5Gk3/4ez7q7bbozX1O65Eydd99o1bsON6+I1lalxVg/FuXPn3Jo1a/xP65nRsug5aS6Ntt13332+Mdc6Ne7ax3ovdH9TU1P+GO2rgLBx48bF8+ha+qSYrqdtKtqmY7RO59X7ofX79u3z63Vuncvqo3Nou9VHP9PhQ8epLjpG56z2/tq96ZhTp075a+j+H330Ub/98ccf93VK03wcHavjFGyy3lMAAGpWqlHU6JVGRkbipeZTVYeHh+OlpX7w9Aulb44/VXrv7Ad1F51H58sjavx9vVSikODrZ8vaNjo6umTZjI2NlaIGfnGbip7n/v37/Xls3fT0tN9/ZmZmyb5ZxZ5NFBbKtumcybpYSdbJzM3N+f21za5fieqs8+jcyWehOqjO1Vh99CwAAGiktvqeG83V0Je+pel7bl47NecefmBLvKZ23zk85W6+tif399zUQ70jKs34eHYr6HdAvUb2K6ReIf1O5KFeJBV9iSEAAI0U/PfcrGbd3d1tG2yy5A02oqE45toAAJqBcIOW0Fwc9dSIzRki3AAAmoFwg8I0iVjDURpSE73Wumr0RYX2pyj0WhOVq01WBgCgVgGFm/JvG66lLMyJRTUKJ5pvo6Aieq1Sjf0ZCPubU/wdKQBAs9Bzg8IUTPTNyulSjSae2376AkPNNwIAoBmC+bTUz06cdHf0ln+nSlHHZ3/j7r5tfUs+LQUAABoviJ6bK6+43HWvvcy9+fbv6y46j84HAADaUxA9NwAAAIY5NwAAICiEGwAAEBTCDQAACArhBgAABIVwAwAAgkK4AQAAQSHcAACAoBBuAABAUAg3AAAgKIQbAAAQFMINAAAICuEGAAAEhXADAACCQrgBAABBIdwAAICgEG4AAEBQCDcAACAohBsAABAUwg0AAAgK4QYAAASFcAMAAIJCuAEAAEEJIty88+4Z98obpyuWk2/Nx3sCAIDQBRFufnJ8xn33h8+4iel/Kyv/95+n3f/8PxPRPrPx3gAAIGTBDEvd8Kk/c1/Z/tmycmffDW7NpZe4Q1HIIeAAABC+jphzo+Dz0La7CTgAAHSAjplQvPnTNxNwAADoAEGFm1KpVFaitYvb7vmPf+4e3HoXAQcAgIB1TM+NUQ9OCAFndnbWTU5O+nLs2LF4bW2S52rUOQEAWCkdF24khIBz4MABNzg46MumTZvitbVJnqtR5wQAYKUEE25sACpvuafNA87o6KgfahsZGYnX1M7OZWVgYCDeAgBA++nInhvT7gEHAACU6+hwI40KOPPz836uin4aLWs+SzU2x2W5/Yxdp8icGLvGappHU8t9AACQR8eHG6k14HR1dfmi+Sl9fX1+rop+jo+Pu56ensW5K1kN+J49exb3seN27ty5JBwlab22J8+rn9VCkebSJK+hYyrVp5l27Nix+Kx0n7t27VpyH/bMjF7b/laszto/uV7nBgAgqSPCzdy/n3E/Onq8ankn2uf6T/2ZDzjP//JkfGR1ExMTrr+/3ze8Q0NDfrm7u9s3uJq3YssKGUlq3FW0z/T0tJuZmfFzZ7RfVmOtYKMgoO3aT+cdGxvz65OhIEnhSWHI6jE3N+f279/vw5DOVSlENYPm9Niz0vVVt+R92DOze7E665n29vYuHiu6B5tnpPU6NwAAS5RqFDVApaiRiZeaT1UdHh6Ol5b6wdMvlPZ976nSmXMflpUXXn2z9MSR53KXr3/nsD9fXnoOUQMcLy0sR411KQoTflnPSOtMFGT8vUQNd7zmoqih9tuiBjxes0D3rfVRYx6vWaBr6Frpt7HaNXQObdO1KlF90+dsBDtvFGjiNQt0H3qGyecoVlfdT5LuK+veAACQ4HtubrnhavfXm+/IXXo++afxkflFjXb8aoF6GdQbkcV6J7J6HNQjoZ6KdG+MlnWN9HV0DfVupFlPUdY1dA5dQ/NdVkq6zroP3bt6dZL1srome76styr9LAAAMOGEm+jf+FFYq7v4z4kXVCnIZLG5I2q0s6SDh/ZXg27DMmlZ17ZraC5Lcn6KFYWIVg5L5WHPIx26hoeHl4QbBZtKoQ4AAGmrcPPDH/5wcXJsshw6dCjeY/XLE4SS+xQJTsaOUW9IpaLQsBql71f1TM4tUvhRsKnluQAAOkNbhZvPf/7zmQ31vffeG++x+lkPRXroSdSIq9clOeSi/dWQW29MWtbwkvXy6DwamkoXBYaVHNbJ6jWy+0jXS/eu+up5WchhSAoAUE1bhZtbbrnFN2zpctNNN8V7rH5qqNVg6xND6UZen6DSuvSQi45R458ORFrOCj12DX1aKuuj4urt0rZGUZ11Tg2DVQphSbr3JB2joSe9l1nDb3oeulcdp/tiSAoAUM3Hvh6JXxdy8OBBd9111/kGqRV2797tG9AtW7bEay46cfK0m//DWXfXbTfGa2r33ImTrnvtGrfhxnXxmsrU2Cp0nDt3zq1Zs8b/VCOtxl7LouekgKFt9913n1+vBlr7qcHWsrbr/rSvgol6o5LU4Os6+/bt8+cRHf/oo4/6c2mdis6jfXVOvS/ax+ojOocClMKErmFBQss6t7arTE1N+WN0Tlun5Y0bN/r907S/6q99VJ9KvxP2LLT/qVOnfD3tPuTxxx/3v1Np6r3SsTpOwWb79u3xFgAAMpRqFDVgLf8o+N69e+OlpfTR7W+OP1V67+wHdRedJ+9HwaOG3NdLJQoKix/ZVtG20fij3bacpI8565jk9mrPUx+XTp9f+1e7hj5CHYWBxe0qUVAo+yi2zpPcJ6ukz52kuuletM/09HS8tpx+Z3Qu1Vn72rlVx/THvdPsPtN1BwAgrUv/L2o0ClMviv7lrzkcraBP+UThxj322GPxmouenHrRvXZqzj38QHmvTlHfOTzlbr62x23fcme8prnU26Fic3HyUE+L9brkVcsxjabfGfUC2a9ckTqpl0wlClLxGgAAsgX/PTerXXd3d6FgI7WElJUONlmK1ElDeMy1AQDkQbjBqqS5ODbxWD08KoQbAEAehBs0nSYR26Rk0Wutq0af5rLJz/Y3sipNVAYAICmgcJP9jcNFy8IcVzSSwonm2yioiF6rVKNPc4n+CrjoD2wCAJAHPTdoOgUT/QXvdKlGE9VtP/3ldM1NAgAgj2A+LfWzEyfdHb3l35FS1PHZ37i7b1vfsk9LAQCAxgqi5+bKKy533Wsvc2++/fu6i86j8wEAgPYURM8NAACAYc4NAAAICuEGAAAEhXADAACCQrgBAABBIdwAAICgEG4AAEBQCDcAACAohBsAABAUwg0AAAgK4QYAAASFcAMAAIJCuAEAAEEh3AAAgKAQbgAAQFAINwAAICiEGwAAEBTCDQAACArhBgAABIVwAwAAgkK4AQAAQSHcAACAoAQRbt5594x75Y3TFYu2AwCAztBVisSvCxkcHHT9/f1udHQ0XtNcXV1dbu/eve6xxx6L11z05NSLbnL65Xip3JpLL3Ffe3CrW391d7wGAACEKphhqVtvuNrt/epDZWXbXRvc2fc/cN/6/hF38q35eG8AABCqjphzo+BzZ9/1BBwAADpAx0wofmjb3QQcAAA6QFDhRtOH0iVau7jtwa13xQHnxwQcAAAC1TE9N2Yh4NxAwAEAIFAdF26EgAMAQLiCCTc2AJW3fCEKOJ9ZwYAzPj7uP94+OzsbrwEAAI3QkT03Rj04KxVwjh075n8SbgAAaKyODjfSyICjwDI5OemLXs/Pzy+GmEaya9QSjOxY1S0tXf+8VI9kfXTuateRWq5TlNWjmdcAAKxCpRoNDAyURkZG4qXmU1X37t0bLy31g6dfKO373lOlP77/YVl54shzFbcly9//07OlkW9/v/TG6bn4rPmNjY2Vent70yNfpe7ubv/T7N+/v2yfdNExlYyOji6e08rw8HBpbu5inaenp5dsV9E6vVfJY/Va643ez+Qxto+uWYmumz5Oy8nr9Pf3x3sv0DNI34P2SdalFkNDQ4vn03uh+01eQ+v0Phm9Tm5XsTqoPsn1OjcAoH10RM+NvqH41V+/VbXoI+I9n/zTwj046q3YuXOnixpPFzWYbmZmxhe9TosaSTcxMeFLFEr8Ov35CltnJcuuXbt8icKDixphf42oAXcHDhxwO3bsiPdy/k9i2HnsGqrfnj17/PVVLx2X7lVSD4fo3FFo8cfrWrqm5gdl0XV1DrsH/UyeR9dRfYzqoLrovNpf14nCjn+G+nMelXp58rA66Ho6n66l62ud7jkKVL6+di9WBz0TvXd2rKhOOla0XucGALSROOQUpn+hRw1AvNR8qupyPTdn3v+wrDz13Am/LW9R743Ol1fU+Pm66Weank+lR2zbso5Li4JMxR6EqOH129QjkmbXyNqe7ilRT4ZKmno81JORZved/h2wa6bPX+0e7Fy6l3rp91LnSt+Lepl0LypJdm3VL0n1zKorAGD1CyvcnIsCTZ1F5ykSbtRoaphFjaYaZzWWWmfb0o28KRJuLMCkG2Cja+v9SLNrZG2rRnVSGNLxOrfOkVap/hYW0utt/6L3UJSFmyy6p6y66dqqn9H7pv2yAiMAYPULZ1gqao6i+6m7+H6OAjTcETWWfkhDQzgaXunp6XF9fX1+WdvrZcNHUSPsf6ZpvQ0HZdHQy3JseE0fT9c92FCWTRJOi0KE/5m+ri2n79vuQc9F10gXXaeeYak87Pml66zhOw3vGQ1dqf55nhsAYPVpq3Bz5MiRxbknyXLkx0fiPVaGgo3mdSgcKehE/+L3DaMa0U2bNtX9aZ08AanaPpVCkVH9VE816iPxPBULexZi0rRe51UoUNG9KgypaJvNXzFWP52/UrE5Qs2Wfla6roKVzcfRvej9y/PcAQCrT1uFm7Vr18avVg8FA/U8WG+AGnY1lpqEqkm1aiDV4OelXpNkL4JYOMma2GsTgyuFkDx0PZ1H9VW9855Lx+j+1Mujeito6lgFvTQLO9qua6SLnlk995CW1QuUfI+SdA+6vp6vhZxG1gUA0FptFW4eeeSRzIZx67at8R6tZ41oVoBRo6mS1dBm9aYopKgBTg8FqeG1kJQ+lwKF1tUzhGLn1DXSsuputE29VDMzM763x35mncfuQUEoa6jLhsKy6DrariGtvL1g6fdDxynEKbSke5VEz0+hRsepngxJAUD7CmbOjZ8B2qBSC4US63XRazWSWlajqoY9zXoGFE7UqOo4a9zT+6uxVYjTuTR8pH11jD7arNfa3xpjBQFdW+e1IKB9taxivRdJdj07d7r+omO1Lhl2FNC03o7RT+2TdQ3dg4KPjtd1rC46RtdR4KkUKFQH7at9dC95qB56njpO19I1RM8xi94PG2Yj2ABAmyvVKGoMlnzCpNlU1ahxjJeW0qebvjn+VOm9sx/UXXSeWj4KHjWai58sstLf35/58WqjT+NEjf7i/jq+0j2Ktumctr+OTb8H+nSWbc8qUcMd77mU6pmuv95j1TF5Tfv0l34m654u2pb1aSN9Wkp1SO6r61Z7Tvr0kuqgc9r1K1GddU69H8n66ZqVPqlldIz2rVYXAMDq16X/F/0PemH6l7C69yv9S7jRNK9F//K3Ho+kJ6dedK+dmnMPP7AlXlO77xyecjdf2+O2b7kzXrM89UZEDenia/Uw6Nnkpf11vJ1jObqGinoaGi3PubVdQ0R6LzQsla637sd6cSq9Z6IemSLPKQ/9Xqq3xn6ti1xD9VWJwlS8BgDQjsL5KPgKSjbuel20wVaQyBtsRPs2I9hInnMrMCjgKNhm1VvHa5ueQ9YQlWl0sMlS5Boa8mJICgDaH+EGhVmgUQ9NJdYDtJpZ75IosKkQbgCg/RFuUJh6QxQCNASUnqSsgKDAoEnDCjf6/ppWUNBSPSxQ6XW18CWacKz6q856reGzSkNoAID2EVS40TSLegvy0XfZKLjYp53sm4btk1AKCfpoeJHhtnoonKgeCiqi1yrVWPBSnUX3BABof0FNKP67++ufUPzdfyg+objTpefV6PeiVaHGqMfGgo3R3J/l5g9Z3emxAYBwBBNuXnr9t+6/bN4Yr6ndP/70F+7Tf34N4QYAgDYVTLiZnH45XqrfwKbbCTcAALSpIMINAACA4dNSAAAgKIQbAAAQFMINAAAICuEGAAAEhXADAACCQrgBAABBIdwAAICgEG4AAEBQCDcAACAohBsAABAUwg0AAAgK4QYAAASFcAMAAIJCuAEAAEEh3AAAgKAQbgAAQFAINwAAICiEGwAAEBTCDQAACArhBgAABIVwAwAAgkK4AQAAQekqReLXhQwODrr+/n43Ojoar2murq4uNzEx4QYGBuI1Fz059aKbnH45Xip3w6e63dce2uouu/SSeA0AAAhVMD03CjBf+ZvPlpXNn77Z/frtefetJ464P77/Qbw3AAAIVTDhZs2lH3e33nB1WVlz6SU++AgBBwCA8HXEnBsFn6/8zX3+NQEHAICwBRVuShn/0Vr5RBRwvhwFHK37X0/8mIADAECgOurTUgs9OJ/1rwk4AACEqaPCjRBw2tPs7Kw7duxYvAQAQGXBhBs/ABX9v7KSse0Tl3zcfXk7AaedbNq0yRcCDgBgOR3Xc2PUg7OSAWd8fNx/d496JFaL1Vgn09vbu1gAAKimY8ONrGTAsR6I1RQkVmOdzPT0tJuZmXHd3Qsf6wcAoJKODjfSyICjcDA5OemLXs/Pzzd9GMWup2ulpevTTEWuo/CkfS1Eqe52fNZ91KpIndLPqlnvnd1rM84NAIjpzy/UYmBgoDQyMhIvNZ+qOjExES8t9YOnXyjt+95TpTPnPiwrTxx5rrTnf/9j6YVX36xajv7i9dLIt7/v9z1z7v34zPmMjY2Vent7fR2Tpbu72/80+/fvL9snXXRM0vT0dNk+Wqdnb+dX0WutN3p/ksfYPqOjo/EeC2qpU5KOT9ZDpb+/f0ldzNzcXFm9tJw8Xsea9HlVss6bVqROed+7WgwNDS2eT9fQe2bLtk7XN3qd3K5idVb9k+t1bgBAtmD+ttTrv51zjzyw8EV9Sf/vp8fdkedOxEv5DGy63W3fcme8VJ16HzTRVc9ieHjY/xT9y3znzp3+X+r2iJO9AZrfcuDAAf/87BiJGtUly6J/6Ysdo+06j66n56HXe/bscVGj7teJnpdEjaOfp6J9dKzOETWiLmoc/fZa6yS65q5du/y57N51Dq2T9DCSfmd0raiRX7wH7at99N7qWNVH9yHarmV7rX0r/Q6YInUq8t7VQudX0bV1TtG9q/46t+qq9fZ+2Huh90A/9RzsXrWs+9AxegZ6T1UAABkUbmoR/Y9uW/TcFC06j86Xl+pUqW72L/Ustq3SPWWxY1TUO5GU7pVQL0CyV8CotyBqxOOlpYrUKQoJft+sHgR7JsleIluX/p2xay7XI2PHV6tbrXXKOqfVqxH03xWdK/1+qCdL74dKktVL95Ok+8q6NwDAUh0/56Ze+te+egL0L339q1q9LNbbEDWQvuek0fSveeuhMdbrYNQToCKqk3oDrPfCehHqofNJVs+d6qdeBetxEnttPRHGlu2Z1aNonVr93tn7YXRtXUe9O8l6WV3tfkT1Us9N+vkBAMq1VbhRo6xGIF1+9atfxXu0ng2pqKFUeNDQS09Pj+vr6/PLNgTSSOlGMosaTDXaGp5SnawB1/pGsICk+9Q10kXXSQYWa5T1fiXZciOeU9E6rcR7l6YQI+nnovCaDDcKNqpPnvceADpd24QbNY5qANRAp8vRo0fjvXxvfp2lODWOmjdRKpV8Y6m5EmqEVN9mfPGcNYiV6Hq6rhpE9QyoTqqbSqP+5W8Nv85fqSR7l5K9ESrJ91Lb0j1PtShaJ2n1e1dJOkipntZbI6qP6tWKwAUAbS/6H/WaRA1S2fyJlWJzbv5w7oO6S9E5N5oroscYNYzxmotsTkXUKMVrLtKzyzpOzzU9n8ZUOiYtahj9fuk5G6LzV3rbi9RJc1eq1UXXTl8/apj989BxVnRuPafl6DrVridF61Tre1eUPfOs+7RnnjXnSO+jrq/jtE/WHCoAQLlg5txoynGjShE2zKEeiDT9K1slORRisnpf1Eugf6HXO3Rk18v6V35WXUyROqlnQefXcFdWfW0oLEnXVs9IFDB8L4n9zKpnLYrWqdb3TrRe59MQVt7enfR1dJx6saLwk9lzpZ4a+4SU6qJlAMDyPvb1SPy6kIMHD7rrrruuYcMc9Thx8rT7/R/OurtuuzFeU7vnTpx03WvXuA03rovXVKdGVM9CP6empty5c+d8w6dGaffu3X6dJrhu3LgxPmKBGqt9+/a5l156yb/Wftr/1KlT7vHHH/frROfSfocPH/aNoa6zZs0av79Ch6RDiY5VnVQH7Zuuj6ieOp/qpX0kb51Ex+i9t2EmCwGqk+ar6NwjIwsf+Taqk86pfXUf2kdFdckKVmrUdd86p+2bvHfVR7+Dpmidan3vxJ6N9lc9qv33IHkNPUvVU/V79NFH/XY92+R9GD0Te2YKNtu3b4+3AACqintwCov+x3xVDUt9c/yp0ntnP6i76Dy1fBRcQyJRY+RfW4ka0apDCRrqiRrGxf11fHqIxIZOKpVKwya6bro+es90TdXL1qWHQ/LUKUnDPKqD7W/HpO9b10meN120LTn0pfNm7ZcsGrbJkrdO9bx3GirSPqp31pBSkp67XSf5DFRH1bUaHaN9q9UFALBU23yJXzX6Er/XTs25hx/YEq+p3XcOT7mbr+3J/SV+Yv96t9f6V7qeTV7aX8fbORpJ9VGJGu94TT611Ek9I1n3retr+Ea9GxqWSp9T11JPhnpqNExVrRekqEp1MvW+d3novyvqPbL/qi1XpyQ9E5UoTMVrAADL4XtuGiDZWOt10cZRwaNIiChC5y0abKSWOlW6bzXmCg4Kwlnn1LW0TccrBDTScu9Fsj56XfS9q0WRa2iITENSAID8CDdoOgsQ6hWpROFHpdNZD5YoFKoQbgCgmKDCTfITT7UWNJ56KtRAa3hGE3uTvTNqvNWY6ztlFG404TcUCnO6Vwttel0t4Ik+zWWTn/VaQ3SNHKYDgE5Azw1aYmxszAcX9Uwo5Ni3BivUqDFXA66PhhcdClvNFE50rwoqotcq1Vi403MRPTcAQDEBTSh+x/3d/fVPKP7uP2hC8ZWFJhSjmPS8Gv0ehRRqjHpsLNgYzS9abg6UPR96bACgNsGEm8npl+Ol+g1sup1wAwBAmwoi3AAAABjm3AAAgKAQbgAAQFAINwAAICiEGwAAEBTCDQAACArhBgAABIVwAwAAgkK4AQAAQSHcAACAoBBuAABAUAg3AAAgKIQbAAAQFMINAAAICuEGAAAEhXADAACCQrgBAABB6SpF4teFDA4Ouv7+fjc6OhqvueiVN067EydPx0vlrrzicvdXd/TGSwAAAI3TlJ4bBZsjz7/qXpg9VVae+cXr7l+e+2W8JwAAQGM1bVjqk5df5jZt3FBW1l3Z7S5cqKmzCAAAYFlNCzca7Prw/IWyciHaUNtAGAAAwPIaPufmnXfPuMPP/Nyd+PXvXN+N18drLzr11jvuj+fOub/93F/Ga/Jbv67bXXbpJfESAABAuYaHmyenXnST0y/HS4311S9sdRtuXBcvAQAAlGtKuHl+5pS79z/dHq9pjKMvvOx2bPsLwg0AAKiqKXNuStF/PrrQ2KL/AAAALKc54SbKIR+dv9DQwiRkAACQR9PCzfkLpYYWwg0AAMijOR8Fj5LI+fONLaQbAACQR1PCzYWofHThQkOLzgkAALCcJvXcNH5YivnEAAAgj+bMuYn+kzUpuJ5Sy6el5ufn/UfW+/r63LFjx+K11RU9ppZrAACA5qkr3IyPj/uGPVkOHTrk9NU5WQGlnlLL1/EobExOTrrZ2Vlf1zyKHlPLNQAAQPPUHG6GhoZ80Rf5Jcs1667xc3+zhpbqKbXMJ7Y6dXd3+7rmUfSYWq4BAACap+ZvKK5E31D8zL+ddOvXr4/XNMbJkyfd//jcJr6hGAAAVNWcOTdRXsrqfamnNDiDAQCAQDUp3Dh3/vyFhhayDQAAyKN5n5bK+K6aekotn5YCAACdp4k9N6WGFnpuAABAHk0LN1l/2bueQrgBAAB5NGlYqgkfBV84NQAAQFVNCTcXLpx3587+saFF5wQAAFhOw7/n5ifHZ90T/3o8XmqsRx/6rFt/dXe8BAAAUK7h4QYAAGAlNWVYCgAAYKUQbgAAQFAINwAAICiEGwAAEBTCDQAACArhBgAABIVwAwAAgkK4AQAAQSHcAACAoBBuAABAUAg3AAAgKIQbAAAQFMINAAAICuEGAAAEhXADAACCQrgBAABBIdwAAICgEG4AAEBQCDcAACAgzv1/oYDSwp3TdpEAAAAASUVORK5CYII=;imageBorder=default;" vertex="1" parent="rnFfyLZnU6G94Pxc_LtT-4">
          <mxGeometry width="567" height="382" as="geometry" />
        </mxCell>
        <mxCell id="hOOozsf0WDHDU4rZZig0-27" value="" style="endArrow=classic;html=1;rounded=0;entryX=0;entryY=0.5;entryDx=0;entryDy=0;" edge="1" parent="rnFfyLZnU6G94Pxc_LtT-4" target="hOOozsf0WDHDU4rZZig0-43">
          <mxGeometry width="50" height="50" relative="1" as="geometry">
            <mxPoint x="109" y="55.93000000000001" as="sourcePoint" />
            <mxPoint x="168" y="56.36545961002781" as="targetPoint" />
          </mxGeometry>
        </mxCell>
        <mxCell id="hOOozsf0WDHDU4rZZig0-29" value="" style="endArrow=classic;html=1;rounded=0;entryX=0;entryY=0.5;entryDx=0;entryDy=0;" edge="1" parent="rnFfyLZnU6G94Pxc_LtT-4" target="hOOozsf0WDHDU4rZZig0-10">
          <mxGeometry width="50" height="50" relative="1" as="geometry">
            <mxPoint x="210" y="99.80000000000001" as="sourcePoint" />
            <mxPoint x="280" y="101.80000000000001" as="targetPoint" />
          </mxGeometry>
        </mxCell>
        <mxCell id="hOOozsf0WDHDU4rZZig0-31" value="" style="endArrow=classic;html=1;rounded=0;entryX=0;entryY=0.5;entryDx=0;entryDy=0;" edge="1" parent="rnFfyLZnU6G94Pxc_LtT-4" target="hOOozsf0WDHDU4rZZig0-45">
          <mxGeometry width="50" height="50" relative="1" as="geometry">
            <mxPoint x="180" y="205.8" as="sourcePoint" />
            <mxPoint x="380" y="203.8" as="targetPoint" />
          </mxGeometry>
        </mxCell>
        <mxCell id="hOOozsf0WDHDU4rZZig0-32" value="" style="endArrow=classic;html=1;rounded=0;entryX=0;entryY=0.5;entryDx=0;entryDy=0;" edge="1" parent="rnFfyLZnU6G94Pxc_LtT-4" target="hOOozsf0WDHDU4rZZig0-46">
          <mxGeometry width="50" height="50" relative="1" as="geometry">
            <mxPoint x="210" y="259.8" as="sourcePoint" />
            <mxPoint x="320" y="259.8" as="targetPoint" />
          </mxGeometry>
        </mxCell>
        <mxCell id="hOOozsf0WDHDU4rZZig0-33" value="" style="endArrow=classic;html=1;rounded=0;entryX=0;entryY=0.5;entryDx=0;entryDy=0;" edge="1" parent="rnFfyLZnU6G94Pxc_LtT-4" target="hOOozsf0WDHDU4rZZig0-47">
          <mxGeometry width="50" height="50" relative="1" as="geometry">
            <mxPoint x="250" y="309.8" as="sourcePoint" />
            <mxPoint x="400" y="309.8" as="targetPoint" />
          </mxGeometry>
        </mxCell>
        <mxCell id="hOOozsf0WDHDU4rZZig0-10" value="Dataset classes" style="rounded=0;whiteSpace=wrap;html=1;fontFamily=Verdana;fontSize=16;fontStyle=0" vertex="1" parent="rnFfyLZnU6G94Pxc_LtT-4">
          <mxGeometry x="280" y="81.93" width="270" height="35.87" as="geometry" />
        </mxCell>
        <mxCell id="hOOozsf0WDHDU4rZZig0-43" value="&lt;font style=&quot;font-size: 16px;&quot;&gt;Source code root path&lt;/font&gt;" style="rounded=0;whiteSpace=wrap;html=1;align=center;fontFamily=Verdana;fontSize=16;fontStyle=0" vertex="1" parent="rnFfyLZnU6G94Pxc_LtT-4">
          <mxGeometry x="280" y="37.93000000000001" width="269" height="35.87" as="geometry" />
        </mxCell>
        <mxCell id="hOOozsf0WDHDU4rZZig0-45" value="Model classes" style="rounded=0;whiteSpace=wrap;html=1;fontFamily=Verdana;fontSize=16;fontStyle=0" vertex="1" parent="rnFfyLZnU6G94Pxc_LtT-4">
          <mxGeometry x="280" y="186.93" width="270" height="35" as="geometry" />
        </mxCell>
        <mxCell id="hOOozsf0WDHDU4rZZig0-46" value="Storage manager class" style="rounded=0;whiteSpace=wrap;html=1;fontFamily=Verdana;fontSize=16;fontStyle=0" vertex="1" parent="rnFfyLZnU6G94Pxc_LtT-4">
          <mxGeometry x="280" y="241.93" width="270" height="35.87" as="geometry" />
        </mxCell>
        <mxCell id="hOOozsf0WDHDU4rZZig0-47" value="Strategies classes" style="rounded=0;whiteSpace=wrap;html=1;fontFamily=Verdana;fontSize=16;fontStyle=0" vertex="1" parent="rnFfyLZnU6G94Pxc_LtT-4">
          <mxGeometry x="280" y="291.93" width="270" height="35.87" as="geometry" />
        </mxCell>
        <mxCell id="rnFfyLZnU6G94Pxc_LtT-2" value="" style="endArrow=classic;html=1;rounded=0;entryX=0;entryY=0.5;entryDx=0;entryDy=0;" edge="1" parent="rnFfyLZnU6G94Pxc_LtT-4" target="rnFfyLZnU6G94Pxc_LtT-3">
          <mxGeometry width="50" height="50" relative="1" as="geometry">
            <mxPoint x="180" y="156.06" as="sourcePoint" />
            <mxPoint x="380" y="156.06" as="targetPoint" />
          </mxGeometry>
        </mxCell>
        <mxCell id="rnFfyLZnU6G94Pxc_LtT-3" value="Server application main program" style="rounded=0;whiteSpace=wrap;html=1;fontFamily=Verdana;fontSize=16;fontStyle=0" vertex="1" parent="rnFfyLZnU6G94Pxc_LtT-4">
          <mxGeometry x="280" y="137.19" width="270" height="35.87" as="geometry" />
        </mxCell>
      </root>
    </mxGraphModel>
  </diagram>
</mxfile>
